<svg width="187" height="172" viewBox="0 0 187 172" fill="none" xmlns="http://www.w3.org/2000/svg">
<path fill-rule="evenodd" clip-rule="evenodd" d="M139.333 118.517V74.6218C139.333 47.6701 124.935 25.108 99.827 19.1383V13.1685C99.827 5.88195 93.8572 0 86.5706 0C79.284 0 73.4899 5.88195 73.4899 13.1685V19.1383C48.2941 25.108 33.9842 47.5824 33.9842 74.6218V118.517L22.5715 129.842C17.0407 135.373 20.9035 144.854 28.7168 144.854H144.337C152.15 144.854 156.101 135.373 150.57 129.842L139.333 118.517ZM86.5704 171.192C96.2273 171.192 104.128 163.291 104.128 153.634H69.0123C69.0123 163.291 76.8257 171.192 86.5704 171.192ZM41.0075 7.02479C44.5191 10.5364 44.4313 16.2428 40.7441 19.5788C28.5413 30.7282 20.1134 45.9159 17.4797 62.9472C16.7774 67.1612 13.0902 70.2338 8.87622 70.2338C3.43322 70.2338 -0.692921 65.4053 0.0971921 60.0501C3.43322 39.156 13.7925 20.5445 28.8046 6.84921C32.2284 3.60097 37.6714 3.68876 41.0075 7.02479Z" fill="#495057"/>
<circle cx="146.823" cy="40.2296" r="39.5294" fill="#DE1306"/>
</svg>
