<svg width="140" height="172" viewBox="0 0 140 172" fill="none" xmlns="http://www.w3.org/2000/svg">
<path fill-rule="evenodd" clip-rule="evenodd" d="M124.736 74.7179V118.67L136.479 130.009C142.259 135.547 138.13 145.041 129.965 145.041H9.14183C0.976837 145.041 -3.05979 135.547 2.71993 130.009L14.6463 118.67V74.7179C14.6463 47.6436 29.6002 25.1404 55.93 19.1629V13.1855C55.93 5.88953 61.9849 0 69.5995 0C77.214 0 83.4524 5.88953 83.4524 13.1855V19.1629C109.69 25.1404 124.736 47.7315 124.736 74.7179ZM87.9471 153.83C87.9471 163.499 79.6903 171.411 69.5988 171.411C59.4155 171.411 51.2505 163.499 51.2505 153.83H87.9471Z" fill="#495057"/>
</svg>
