<svg width="602" height="200" viewBox="0 0 602 200" fill="none" xmlns="http://www.w3.org/2000/svg">
<path d="M163.394 140V53.99H200.97C209.998 53.99 216.993 55.9827 221.954 59.968C226.915 63.872 229.396 69.3213 229.396 76.316C229.396 80.952 228.217 84.9373 225.858 88.272C223.499 91.6067 220.246 94.0467 216.098 95.592C220.978 96.9747 224.76 99.4147 227.444 102.912C230.209 106.328 231.592 110.679 231.592 115.966C231.592 123.611 228.989 129.549 223.784 133.778C218.66 137.926 211.503 140 202.312 140H163.394ZM178.4 90.468H198.286C208.941 90.468 214.268 86.3607 214.268 78.146C214.268 69.9313 208.941 65.824 198.286 65.824H178.4V90.468ZM178.4 128.166H200.36C211.096 128.166 216.464 123.855 216.464 115.234C216.464 106.613 211.096 102.302 200.36 102.302H178.4V128.166ZM239.458 67.532V52.648H256.538V67.532H239.458ZM240.434 140V80.342H255.684V140H240.434ZM293.368 141.22C277.589 141.22 269.7 133.412 269.7 117.796V91.81H258.232V80.342H269.7V62.53H284.95V80.342H303.006V91.81H284.95V116.942C284.95 120.846 285.804 123.774 287.512 125.726C289.22 127.678 291.985 128.654 295.808 128.654C296.947 128.654 298.126 128.532 299.346 128.288C300.566 127.963 301.827 127.637 303.128 127.312L305.446 138.536C303.982 139.349 302.111 140 299.834 140.488C297.638 140.976 295.483 141.22 293.368 141.22ZM338.482 141.22C331.731 141.22 325.469 140.366 319.694 138.658C313.919 136.869 309.039 134.469 305.054 131.46L309.812 119.138C313.797 121.985 318.149 124.181 322.866 125.726C327.665 127.271 332.87 128.044 338.482 128.044C344.907 128.044 349.584 126.987 352.512 124.872C355.44 122.676 356.904 119.87 356.904 116.454C356.904 113.607 355.847 111.371 353.732 109.744C351.699 108.117 348.161 106.775 343.118 105.718L329.698 102.912C314.407 99.6587 306.762 91.81 306.762 79.366C306.762 73.998 308.185 69.3213 311.032 65.336C313.879 61.3507 317.823 58.26 322.866 56.064C327.909 53.868 333.724 52.77 340.312 52.77C346.168 52.77 351.658 53.6647 356.782 55.454C361.906 57.162 366.176 59.602 369.592 62.774L364.834 74.486C358.083 68.7927 349.869 65.946 340.19 65.946C334.578 65.946 330.186 67.1253 327.014 69.484C323.842 71.8427 322.256 74.9333 322.256 78.756C322.256 81.684 323.232 84.0427 325.184 85.832C327.136 87.54 330.471 88.882 335.188 89.858L348.486 92.664C356.538 94.372 362.516 97.056 366.42 100.716C370.405 104.376 372.398 109.256 372.398 115.356C372.398 120.48 371.015 124.994 368.25 128.898C365.485 132.802 361.54 135.852 356.416 138.048C351.373 140.163 345.395 141.22 338.482 141.22ZM394.364 140L370.818 80.342H386.434L401.684 122.31L417.056 80.342H427.792L443.164 122.554L458.414 80.342H473.176L449.752 140H436.454L421.936 101.57L407.662 140H394.364ZM494.864 141.22C490.554 141.22 486.69 140.407 483.274 138.78C479.94 137.072 477.296 134.795 475.344 131.948C473.474 129.101 472.538 125.889 472.538 122.31C472.538 117.918 473.677 114.461 475.954 111.94C478.232 109.337 481.932 107.467 487.056 106.328C492.18 105.189 499.053 104.62 507.674 104.62H511.944V102.058C511.944 97.9913 511.05 95.0633 509.26 93.274C507.471 91.4847 504.462 90.59 500.232 90.59C496.898 90.59 493.482 91.1187 489.984 92.176C486.487 93.152 482.949 94.6973 479.37 96.812L474.978 86.442C477.093 84.978 479.574 83.7173 482.42 82.66C485.348 81.5213 488.398 80.6673 491.57 80.098C494.824 79.4473 497.874 79.122 500.72 79.122C509.423 79.122 515.889 81.1553 520.118 85.222C524.348 89.2073 526.462 95.4293 526.462 103.888V140H512.188V130.484C510.806 133.819 508.61 136.462 505.6 138.414C502.591 140.285 499.012 141.22 494.864 141.22ZM498.036 130.728C502.022 130.728 505.316 129.345 507.918 126.58C510.602 123.815 511.944 120.317 511.944 116.088V113.404H507.796C500.151 113.404 494.824 114.014 491.814 115.234C488.886 116.373 487.422 118.487 487.422 121.578C487.422 124.262 488.358 126.458 490.228 128.166C492.099 129.874 494.702 130.728 498.036 130.728ZM536.451 161.96V80.342H551.335V89.858C553.043 86.6047 555.605 84.002 559.021 82.05C562.518 80.098 566.463 79.122 570.855 79.122C576.06 79.122 580.615 80.3827 584.519 82.904C588.504 85.4253 591.595 89.004 593.791 93.64C595.987 98.1947 597.085 103.685 597.085 110.11C597.085 116.454 595.987 121.985 593.791 126.702C591.595 131.338 588.545 134.917 584.641 137.438C580.737 139.959 576.142 141.22 570.855 141.22C566.626 141.22 562.803 140.325 559.387 138.536C556.052 136.665 553.49 134.185 551.701 131.094V161.96H536.451ZM566.585 129.63C571.14 129.63 574.8 128.003 577.565 124.75C580.33 121.415 581.713 116.535 581.713 110.11C581.713 103.603 580.33 98.764 577.565 95.592C574.8 92.3387 571.14 90.712 566.585 90.712C562.03 90.712 558.37 92.3387 555.605 95.592C552.84 98.764 551.457 103.603 551.457 110.11C551.457 116.535 552.84 121.415 555.605 124.75C558.37 128.003 562.03 129.63 566.585 129.63Z" fill="black"/>
<path d="M53.4677 3.52169L9.39584 59.1831C8.68249 60.0845 9.32434 61.4116 10.4738 61.4116L101.622 61.4116C102.793 61.4116 103.428 60.0424 102.672 59.1487L55.5956 3.48704C55.0347 2.82375 54.007 2.8408 53.4677 3.52169Z" fill="white" stroke="#6BB3F6" stroke-width="6"/>
<path d="M9.95223 63.9798L54.6509 85.2735C55.4291 85.6443 56.3362 85.6287 57.1012 85.2314L101.115 62.371C103.033 61.3748 103.105 58.657 101.243 57.5606L57.3097 31.6999C56.4338 31.1845 55.345 31.1939 54.4783 31.7246L9.69869 59.1521C7.83804 60.2919 7.98213 63.0413 9.95223 63.9798Z" stroke="#6BB3F6" stroke-width="6"/>
<path d="M54.2545 195.054L9.11342 140.256C8.38275 139.368 8.9988 138.029 10.1481 138.007L101.28 136.242C102.45 136.22 103.111 137.577 102.373 138.485L56.3827 195.047C55.8347 195.721 54.8068 195.724 54.2545 195.054Z" fill="white" stroke="#6BB3F6" stroke-width="6"/>
<path d="M8.57725 134.449L52.8554 112.294C53.6263 111.909 54.5335 111.907 55.306 112.289L99.7543 134.293C101.691 135.252 101.816 137.968 99.9749 139.1L56.5507 165.806C55.685 166.339 54.5961 166.35 53.7193 165.837L8.4172 139.281C6.53484 138.177 6.62569 135.426 8.57725 134.449Z" fill="white" stroke="#6BB3F6" stroke-width="6"/>
<line x1="54.0003" y1="192.999" x2="54.0003" y2="136.999" stroke="#6BB3F6" stroke-width="6"/>
<line x1="52.0003" y1="127.999" x2="52.0003" y2="71.9993" stroke="#6BB3F6" stroke-width="6"/>
<path d="M55.9963 65.5443L47.15 76.7214M47.15 76.7214C51.7668 74.763 56.9029 74.3918 61.7534 75.6659C66.6039 76.94 70.8945 79.7874 73.953 83.7618C77.0115 87.7363 78.6648 92.6131 78.654 97.6281M47.15 76.7214L55.9963 85.5677M55.9963 129.619L64.8447 118.444M64.8447 118.444C60.2278 120.399 55.0932 120.767 50.2447 119.492C45.3961 118.216 41.1073 115.369 38.0498 111.396C34.9922 107.423 33.3385 102.548 33.3474 97.5343M64.8447 118.444L55.9963 109.596" stroke="white" stroke-width="5.66348" stroke-linecap="round" stroke-linejoin="round"/>
<circle cx="55.5001" cy="97.0405" r="44.5" transform="rotate(90 55.5001 97.0405)" fill="#0057D9"/>
<path d="M55.344 64.8484L46.4976 76.0254M46.4976 76.0254C51.1145 74.0671 56.2506 73.6959 61.1011 74.97C65.9515 76.2441 70.2422 79.0915 73.3007 83.0659C76.3591 87.0404 78.0125 91.9172 78.0017 96.9322M46.4976 76.0254L55.344 84.8718M55.344 128.923L64.1923 117.748M64.1923 117.748C59.5755 119.703 54.4409 120.071 49.5923 118.796C44.7438 117.52 40.455 114.673 37.3974 110.7C34.3399 106.727 32.6861 101.852 32.6951 96.8383M64.1923 117.748L55.344 108.9" stroke="white" stroke-width="5.66348" stroke-linecap="round" stroke-linejoin="round"/>
</svg>
